# xmcd
#
# Track frame offsets:
#	150
#	19666
#	31169
#	43724
#	56207
#	67341
#	78920
#	90315
#	102324
#	115437
#	126494
#	137536
#	148725
#	161026
#	171828
#	183561
#	192472
#	204906
#	214284
#	226038
#	239684
#	251259
#	263649
#	275205
#	285169
#
# Disc length: 3960 seconds
#
# Revision: 2
# Processed by: cddbd v1.5.2PL0 Copyright (c) Steve Scherf et al.
# Submitted via: audiograbber 1.83.01
#
DISCID=750f7619
DTITLE=Various Artist - Absolutely Country -  CD2
DYEAR=2011
DGENRE=Country
TTITLE0=Marty Robbins - El Paso
TTITLE1=Faron Young - Sweet Dreams
TTITLE2=George Jones - White Lightning
TTITLE3=Jim Reeves - Bimbo
TTITLE4=Slim Whitman - Singing Hills
TTITLE5=Patsy Cline - Walking After Midnight
TTITLE6=Ferlin Husky - A Dear John Letter
TTITLE7=Brenda Lee - I'm Sorry
TTITLE8=Kitty Wells - Making Believe
TTITLE9=Hank Snow - Cryin' Prayin' Waitin' Hopin'
TTITLE10=Ernest Tubb - The Yellow Rose Of Texas
TTITLE11=Johnny Cash - Cry Cry Cry
TTITLE12=George Jones - What Am I Worth?
TTITLE13=Webb Pierce - There Stands The Glass
TTITLE14=Tennessee Ernie Ford - Sixteen Tons
TTITLE15=Johnny Horton - I'm A One Woman Man
TTITLE16=Kitty Wells - Jealousy
TTITLE17=Jim Reeves - Billy Bayou
TTITLE18=Marvin Rainwater - Whole Lotta Woman
TTITLE19=Bill Monroe - Blue Moon Of Kentucky
TTITLE20=Hank Snow - The Last Ride
TTITLE21=Johnny Cash - I Walk The Line
TTITLE22=Marty Robbins - Lovesick Blues
TTITLE23=Conway Twitty - It's Only Make Believe
TTITLE24=Hank Williams - Take These Chains From My Heart
EXTD=YEAR: 2011
EXTT0=
EXTT1=
EXTT2=
EXTT3=
EXTT4=
EXTT5=
EXTT6=
EXTT7=
EXTT8=
EXTT9=
EXTT10=
EXTT11=
EXTT12=
EXTT13=
EXTT14=
EXTT15=
EXTT16=
EXTT17=
EXTT18=
EXTT19=
EXTT20=
EXTT21=
EXTT22=
EXTT23=
EXTT24=
PLAYORDER=
